<?xml version="1.0" encoding="UTF-8"?>
<svg id="Layer_2" data-name="Layer 2" xmlns="http://www.w3.org/2000/svg" viewBox="0 0 155.97 167.19">
  <defs>
    <style>
      .cls-1 {
        fill: #43edac;
      }
    </style>
  </defs>
  <g id="Layer_1-2" data-name="Layer 1">
    <g>
      <path class="cls-1" d="M155.97,3.74v26.83l-43.66,61.15-60.61,1.78c-13.68,18.81-26.06,38.73-39.98,57.35-3.1,4.15-6.95,11.19-11.72,12.61v-25.58l43.69-61.12,59.32-1.82c18.06-22.19,32.62-47.03,50.1-69.61.81-1.04-.04-2.26,2.86-1.58Z"/>
      <path class="cls-1" d="M17.47,17.46l.17-15.42,2.94-2.04,120.41,1.26-42.41,63.01-38.08.62-5.59-5c.73,7.6-7.49,12.13-13.67,8.04-8.95-5.93-2.96-21.71,9.62-15.85,3.74,1.74,3.7,6.28,4.07,6.57.18.14,2.73-1.21,4.3-1.27,5.52-.23,19.12,1.18,23.1-.63,1.29-.59,4.92-4.81,6.22-6.25,3.07-3.39,17.97-23.57,19.33-26.84.86-2.07.84-4.02.67-6.19H17.47Z"/>
      <path class="cls-1" d="M14.97,167.19c-1.72-1.67,4.75-10.28,5.96-12.13,11.5-17.54,25.75-34.74,37.72-52.11,2.63-1.2,32.28-1.21,36.86-.71,2.62.29,4.88,2.63,6,2.44,3.06-.5,3.25-7.43,12.56-6.05,11.89,1.77,8.29,21.42-6.74,16.68-3.43-1.08-4.02-5.02-6.86-5.54-4.87-.89-26.16-.38-29.78,2.42-1.26.98-1.01,3.18-2.05,4.43-6.35,7.68-17.92,20.77-21.81,29.4-.76,1.68-.86,3.14-.67,4.94h91.08v16.22H14.97Z"/>
      <path class="cls-1" d="M91.08,26.2c1.99,1.9-8.49,14.36-10.61,16.22H1.25c-1.04-2.98,10.83-16.22,11.85-16.22h77.98Z"/>
      <path class="cls-1" d="M152.22,126.02c.54,2.17-.89,2.49-1.86,3.75-2.76,3.58-7.64,8.31-11.24,11.22h-74.24l10.61-14.97h76.74Z"/>
    </g>
  </g>
</svg>